<svg width="48" height="48" viewBox="0 0 48 48" fill="none" xmlns="http://www.w3.org/2000/svg">
<path d="M12.1887 22.4576C12.0644 21.6565 11.9999 20.8357 11.9999 20C11.9999 11.1634 19.2105 4 28.1052 4C36.9999 4 44.2104 11.1634 44.2104 20C44.2104 21.9961 43.8425 23.9069 43.1703 25.669C43.0307 26.035 42.9609 26.218 42.9292 26.3608C42.8978 26.5024 42.8857 26.6019 42.8823 26.7469C42.8788 26.8932 42.8987 27.0543 42.9383 27.3766L43.7435 33.917C43.8307 34.6251 43.8742 34.9791 43.7565 35.2364C43.6533 35.4619 43.47 35.641 43.2422 35.739C42.9822 35.8508 42.6293 35.7991 41.9234 35.6956L35.5529 34.7618C35.2203 34.7131 35.0539 34.6887 34.9025 34.6895C34.7526 34.6904 34.6489 34.7015 34.5023 34.7323C34.3541 34.7635 34.1647 34.8344 33.786 34.9762C32.0193 35.638 30.1048 36 28.1052 36C27.2688 36 26.4473 35.9367 25.6453 35.8146M15.2632 44C21.193 44 26 39.0751 26 33C26 26.9249 21.193 22 15.2632 22C9.33336 22 4.52632 26.9249 4.52632 33C4.52632 34.2212 4.72055 35.3959 5.0791 36.4935C5.23066 36.9574 5.30644 37.1894 5.33131 37.3479C5.35728 37.5133 5.36183 37.6062 5.35216 37.7734C5.3429 37.9336 5.30283 38.1146 5.22269 38.4766L4 44L9.9896 43.182C10.3165 43.1373 10.48 43.115 10.6227 43.116C10.773 43.117 10.8528 43.1252 11.0002 43.1545C11.1402 43.1824 11.3483 43.2559 11.7645 43.4028C12.8612 43.7898 14.0382 44 15.2632 44Z" stroke="#D89B1C" stroke-width="3.2" stroke-linecap="round" stroke-linejoin="round"/>
</svg>
