<svg width="24" height="24" viewBox="0 0 24 24" fill="none" xmlns="http://www.w3.org/2000/svg">
<path d="M12.949 2.75235L7.40904 8.29235C7.03904 8.66235 6.82904 9.17235 6.82904 9.70235V19.6924C6.82904 20.7924 7.72904 21.6924 8.82904 21.6924H17.829C18.629 21.6924 19.349 21.2124 19.669 20.4824L22.929 12.8724C23.769 10.8924 22.319 8.69235 20.169 8.69235H14.519L15.469 4.11235C15.569 3.61235 15.419 3.10235 15.059 2.74235C14.469 2.16235 13.529 2.16235 12.949 2.75235ZM2.82904 21.6924C3.92904 21.6924 4.82904 20.7924 4.82904 19.6924V11.6924C4.82904 10.5924 3.92904 9.69235 2.82904 9.69235C1.72904 9.69235 0.829041 10.5924 0.829041 11.6924V19.6924C0.829041 20.7924 1.72904 21.6924 2.82904 21.6924Z" fill="#1C1B1F" style="fill:#1C1B1F;fill:color(display-p3 0.1098 0.1059 0.1216);fill-opacity:1;"/>
</svg>
