<svg width="16" height="16" viewBox="0 0 16 16" fill="none" xmlns="http://www.w3.org/2000/svg">
<path d="M8.2013 8.14634C8.55702 7.83843 8.84234 7.4576 9.03789 7.02969C9.23343 6.60178 9.33464 6.13681 9.33464 5.66634C9.33464 4.78229 8.98345 3.93444 8.35833 3.30932C7.7332 2.6842 6.88536 2.33301 6.0013 2.33301C5.11725 2.33301 4.2694 2.6842 3.64428 3.30932C3.01916 3.93444 2.66797 4.78229 2.66797 5.66634C2.66796 6.13681 2.76917 6.60178 2.96472 7.02969C3.16027 7.4576 3.44558 7.83843 3.8013 8.14634C2.86806 8.56893 2.07628 9.25136 1.52062 10.112C0.964966 10.9727 0.66895 11.9752 0.667969 12.9997C0.667969 13.1765 0.738207 13.3461 0.863231 13.4711C0.988255 13.5961 1.15782 13.6663 1.33464 13.6663C1.51145 13.6663 1.68102 13.5961 1.80604 13.4711C1.93106 13.3461 2.0013 13.1765 2.0013 12.9997C2.0013 11.9388 2.42273 10.9214 3.17288 10.1712C3.92302 9.4211 4.94044 8.99967 6.0013 8.99967C7.06217 8.99967 8.07958 9.4211 8.82973 10.1712C9.57987 10.9214 10.0013 11.9388 10.0013 12.9997C10.0013 13.1765 10.0715 13.3461 10.1966 13.4711C10.3216 13.5961 10.4912 13.6663 10.668 13.6663C10.8448 13.6663 11.0143 13.5961 11.1394 13.4711C11.2644 13.3461 11.3346 13.1765 11.3346 12.9997C11.3337 11.9752 11.0376 10.9727 10.482 10.112C9.92633 9.25136 9.13454 8.56893 8.2013 8.14634ZM6.0013 7.66634C5.60574 7.66634 5.21906 7.54904 4.89016 7.32928C4.56126 7.10952 4.30492 6.79716 4.15354 6.43171C4.00217 6.06626 3.96256 5.66412 4.03973 5.27616C4.1169 4.8882 4.30738 4.53183 4.58709 4.25213C4.86679 3.97242 5.22316 3.78194 5.61112 3.70477C5.99908 3.6276 6.40122 3.66721 6.76667 3.81858C7.13212 3.96996 7.44448 4.2263 7.66424 4.5552C7.884 4.8841 8.0013 5.27078 8.0013 5.66634C8.0013 6.19677 7.79059 6.70548 7.41552 7.08055C7.04044 7.45563 6.53174 7.66634 6.0013 7.66634ZM12.4946 7.87967C12.9213 7.39923 13.2 6.80571 13.2972 6.17057C13.3944 5.53542 13.3059 4.88572 13.0425 4.29967C12.779 3.71363 12.3518 3.2162 11.8123 2.86729C11.2727 2.51837 10.6438 2.33284 10.0013 2.33301C9.82449 2.33301 9.65492 2.40325 9.5299 2.52827C9.40487 2.65329 9.33464 2.82286 9.33464 2.99967C9.33464 3.17649 9.40487 3.34605 9.5299 3.47108C9.65492 3.5961 9.82449 3.66634 10.0013 3.66634C10.5317 3.66634 11.0404 3.87705 11.4155 4.25213C11.7906 4.6272 12.0013 5.13591 12.0013 5.66634C12.0004 6.0165 11.9075 6.36028 11.732 6.66329C11.5565 6.9663 11.3046 7.21793 11.0013 7.39301C10.9025 7.45002 10.8199 7.53145 10.7615 7.6295C10.7032 7.72755 10.671 7.83894 10.668 7.95301C10.6652 8.06618 10.6913 8.17821 10.7437 8.27851C10.7962 8.37882 10.8734 8.46411 10.968 8.52634L11.228 8.69967L11.3146 8.74634C12.1182 9.12749 12.7962 9.73033 13.2686 10.4839C13.7411 11.2374 13.9883 12.1103 13.9813 12.9997C13.9813 13.1765 14.0515 13.3461 14.1766 13.4711C14.3016 13.5961 14.4712 13.6663 14.648 13.6663C14.8248 13.6663 14.9943 13.5961 15.1194 13.4711C15.2444 13.3461 15.3146 13.1765 15.3146 12.9997C15.3201 11.9766 15.0639 10.9692 14.5703 10.073C14.0767 9.17692 13.3622 8.42188 12.4946 7.87967Z" fill="#D89B1C"/>
</svg>
