<svg width="24" height="24" viewBox="0 0 24 24" fill="none" xmlns="http://www.w3.org/2000/svg">
<path fill-rule="evenodd" clip-rule="evenodd" d="M20.5615 9.21958L22.4215 11.3396C22.7515 11.7196 22.7515 12.2796 22.4115 12.6396L20.5515 14.7596L20.8115 17.5696C20.8615 18.0696 20.5315 18.5296 20.0415 18.6396L17.2815 19.2696L15.8415 21.6996C15.5915 22.1296 15.0515 22.3096 14.5915 22.1096L12.0015 20.9996L9.41148 22.1296C8.94148 22.3296 8.41148 22.1496 8.15148 21.7196L6.71148 19.2996L3.95148 18.6696C3.47148 18.5596 3.13148 18.0996 3.18148 17.5996L3.44148 14.7796L1.58148 12.6596C1.25148 12.2796 1.25148 11.7196 1.58148 11.3396L3.44148 9.20958L3.18148 6.40958C3.13148 5.89958 3.47148 5.44958 3.96148 5.33958L6.71148 4.71958L8.16148 2.29958C8.41148 1.86958 8.95148 1.68958 9.41148 1.88958L12.0015 2.99958L14.6015 1.86958C15.0615 1.66958 15.5915 1.84958 15.8515 2.27958L17.2915 4.70958L20.0515 5.33958C20.5315 5.44958 20.8715 5.90958 20.8215 6.40958L20.5615 9.21958ZM7.5 12.6196L10.09 15.2096C10.48 15.5996 11.12 15.5996 11.5 15.2096L16.5 10.7096C16.89 10.3196 16.89 9.59958 16.5 9.20958C16.11 8.81958 15.39 8.81958 15 9.20958L10.8 13.0896L8.91 11.2096C8.52 10.8196 7.89 10.8196 7.5 11.2096C7.11 11.5996 7.11 12.2296 7.5 12.6196Z" fill="#1C1B1F"/>
</svg>
